P3
21 7
255
51
36
255
51
36
255
51
36
255
51
36
255
51
36
255
51
36
255
51
36
255
51
36
255
51
36
255
51
36
255
51
36
255
51
36
255
51
36
255
51
36
255
51
36
255
51
36
255
51
36
255
51
36
255
51
36
255
51
36
255
51
36
255
51
36
255
255
255
255
255
255
255
51
36
255
51
36
255
51
36
255
255
255
255
51
36
255
51
36
255
255
255
255
51
36
255
51
36
255
51
36
255
255
255
255
51
36
255
255
255
255
51
36
255
255
255
255
51
36
255
51
36
255
51
36
255
51
36
255
255
255
255
51
36
255
255
255
255
51
36
255
255
255
255
51
36
255
255
255
255
51
36
255
255
255
255
255
255
255
51
36
255
51
36
255
255
255
255
51
36
255
255
255
255
51
36
255
255
255
255
51
36
255
255
255
255
51
36
255
51
36
255
255
255
255
255
255
255
51
36
255
51
36
255
255
255
255
255
255
255
255
255
255
51
36
255
255
255
255
51
36
255
255
255
255
51
36
255
255
255
255
51
36
255
255
255
255
255
255
255
51
36
255
51
36
255
51
36
255
51
36
255
51
36
255
255
255
255
51
36
255
255
255
255
51
36
255
255
255
255
51
36
255
255
255
255
51
36
255
255
255
255
51
36
255
51
36
255
255
255
255
255
255
255
51
36
255
255
255
255
51
36
255
255
255
255
51
36
255
255
255
255
51
36
255
51
36
255
255
255
255
51
36
255
255
255
255
51
36
255
255
255
255
51
36
255
255
255
255
51
36
255
255
255
255
51
36
255
51
36
255
51
36
255
255
255
255
51
36
255
255
255
255
51
36
255
255
255
255
51
36
255
51
36
255
51
36
255
51
36
255
51
36
255
51
36
255
51
36
255
51
36
255
51
36
255
51
36
255
51
36
255
51
36
255
51
36
255
51
36
255
51
36
255
51
36
255
51
36
255
51
36
255
51
36
255
51
36
255
51
36
255
51
36
255
51
36
255
51
36
255
